<?xml version="1.0" encoding="UTF-8"?> <svg xmlns="http://www.w3.org/2000/svg" width="124" height="349" viewBox="0 0 124 349" fill="none"><path d="M77.2682 199.5C77.2682 204.888 75.2538 207.657 73.4716 210.094C71.8386 212.332 70.4294 214.264 70.4294 218.375C70.4294 222.487 71.7971 224.451 73.3887 226.764C75.0963 229.259 77.0361 232.078 77.0361 237.375C77.0361 242.672 75.1129 245.225 73.4219 247.621C71.8137 249.884 70.4294 251.84 70.4294 256.009C70.4294 257.104 69.6087 257.991 68.6057 257.991C67.6027 257.991 66.782 257.104 66.782 256.009C66.782 250.489 68.7715 247.687 70.5288 245.208C72.0624 243.045 73.3887 241.18 73.3887 237.383C73.3887 233.396 72.0292 231.423 70.4625 229.135C68.7383 226.623 66.782 223.772 66.782 218.384C66.782 212.995 68.8212 210.111 70.6117 207.649C72.2282 205.435 73.6208 203.521 73.6208 199.509C73.6208 195.496 72.2613 193.747 70.6946 191.559C68.9124 189.08 66.8981 186.262 66.8981 180.758C66.8981 179.664 67.7187 178.777 68.7217 178.777C69.7248 178.777 70.5454 179.664 70.5454 180.758C70.5454 184.911 71.9463 186.867 73.5711 189.13C75.3036 191.542 77.2682 194.286 77.2682 199.509L77.2682 199.5Z" fill="#F1BB02"></path><path d="M61.9327 199.5C61.9327 204.888 59.9183 207.657 58.1361 210.094C56.5031 212.332 55.0939 214.264 55.0939 218.375C55.0939 222.487 56.4616 224.452 58.0532 226.764C59.7608 229.259 61.7006 232.078 61.7006 237.375C61.7006 242.672 59.7774 245.225 58.0864 247.621C56.8844 249.312 55.8565 250.771 55.3674 253.083C55.1436 254.153 54.1737 254.816 53.1873 254.575C52.2009 254.335 51.5874 253.282 51.8112 252.213C52.4661 249.046 53.9168 247.007 55.1933 245.208C56.7269 243.045 58.0532 241.18 58.0532 237.383C58.0532 233.396 56.6937 231.423 55.127 229.135C53.4028 226.623 51.4465 223.772 51.4465 218.384C51.4465 212.996 53.4857 210.111 55.2762 207.649C56.8927 205.436 58.2853 203.521 58.2853 199.509C58.2853 195.497 56.9258 193.747 55.3591 191.559C54.0328 189.71 52.5241 187.613 51.8859 184.314C51.6703 183.245 52.3086 182.2 53.2951 181.968C54.2815 181.736 55.2514 182.424 55.4586 183.493C55.9311 185.906 57.0004 187.398 58.2439 189.13C59.9764 191.542 61.941 194.286 61.941 199.509L61.9327 199.5Z" fill="#F1BB02"></path><path d="M92.6035 199.5C92.6035 204.888 90.5892 207.657 88.8069 210.094C87.1739 212.332 85.7647 214.264 85.7647 218.375C85.7647 222.487 87.1325 224.451 88.7241 226.764C90.4317 229.259 92.3714 232.078 92.3714 237.375C92.3714 242.672 90.4483 245.225 88.7572 247.62C87.5552 249.312 86.5273 250.77 86.0383 253.083C85.8145 254.153 84.8446 254.816 83.8581 254.575C82.8717 254.335 82.2583 253.282 82.4821 252.213C83.137 249.046 84.5876 247.007 85.8642 245.208C87.3977 243.045 88.7241 241.18 88.7241 237.383C88.7241 233.396 87.3646 231.423 85.7979 229.135C84.0737 226.623 82.1174 223.772 82.1174 218.384C82.1174 212.995 84.1566 210.111 85.9471 207.649C87.5635 205.435 88.9562 203.521 88.9562 199.508C88.9562 195.496 87.5967 193.747 86.03 191.559C84.7037 189.71 83.195 187.613 82.5567 184.314C82.3412 183.245 82.9795 182.2 83.9659 181.968C84.9524 181.744 85.9222 182.424 86.1295 183.493C86.602 185.905 87.6713 187.398 88.9147 189.13C90.6389 191.534 92.6035 194.27 92.6035 199.5Z" fill="#F1BB02"></path><path d="M77.2682 20.7236C77.2682 26.1118 75.2538 28.8805 73.4716 31.3176C71.8386 33.5557 70.4294 35.4871 70.4294 39.5987C70.4294 43.7103 71.7971 45.6749 73.3887 47.9876C75.0963 50.4828 77.0361 53.3012 77.0361 58.5981C77.0361 63.8951 75.1129 66.4482 73.4219 68.8439C71.8137 71.1069 70.4294 73.0632 70.4294 77.2328C70.4294 78.327 69.6087 79.214 68.6057 79.214C67.6027 79.214 66.782 78.327 66.782 77.2328C66.782 71.712 68.7715 68.9102 70.5288 66.4317C72.0624 64.2681 73.3887 62.403 73.3887 58.6064C73.3887 54.6192 72.0292 52.6463 70.4625 50.3584C68.7383 47.8467 66.782 44.9951 66.782 39.607C66.782 34.2189 68.8212 31.3341 70.6117 28.8722C72.2282 26.6589 73.6208 24.744 73.6208 20.7319C73.6208 16.7198 72.2613 14.9708 70.6946 12.7823C68.9124 10.3038 66.8981 7.48538 66.8981 1.98118C66.8981 0.886972 67.7187 2.96748e-07 68.7217 2.84787e-07C69.7248 2.72826e-07 70.5454 0.886972 70.5454 1.98118C70.5454 6.13419 71.9463 8.0905 73.5711 10.3535C75.3036 12.7658 77.2682 15.5096 77.2682 20.7319L77.2682 20.7236Z" fill="#F1BB02"></path><path d="M61.9327 20.7237C61.9327 26.1119 59.9183 28.8805 58.1361 31.3176C56.5031 33.5558 55.0939 35.4872 55.0939 39.5988C55.0939 43.7104 56.4616 45.675 58.0532 47.9877C59.7608 50.4829 61.7006 53.3013 61.7006 58.5982C61.7006 63.8952 59.7774 66.4483 58.0864 68.844C56.8844 70.535 55.8565 71.994 55.3674 74.3067C55.1436 75.3761 54.1737 76.0392 53.1873 75.7988C52.2009 75.5584 51.5874 74.5057 51.8112 73.4363C52.4661 70.2698 53.9168 68.2306 55.1933 66.4318C56.7269 64.2682 58.0532 62.4031 58.0532 58.6065C58.0532 54.6193 56.6937 52.6464 55.127 50.3585C53.4028 47.8468 51.4465 44.9952 51.4465 39.6071C51.4465 34.2189 53.4857 31.3342 55.2762 28.8723C56.8927 26.659 58.2853 24.7441 58.2853 20.732C58.2853 16.7199 56.9258 14.9708 55.3591 12.7824C54.0328 10.9339 52.5241 8.83665 51.8859 5.53745C51.6703 4.46811 52.3086 3.42364 53.2951 3.19153C54.2815 2.95943 55.2514 3.64745 55.4586 4.71679C55.9311 7.12902 57.0004 8.62112 58.2439 10.3536C59.9764 12.7658 61.941 15.5097 61.941 20.732L61.9327 20.7237Z" fill="#F1BB02"></path><path d="M92.6035 20.7236C92.6035 26.1117 90.5892 28.8804 88.8069 31.3175C87.1739 33.5557 85.7647 35.4871 85.7647 39.5987C85.7647 43.7102 87.1325 45.6748 88.7241 47.9876C90.4317 50.4827 92.3714 53.3011 92.3714 58.5981C92.3714 63.8951 90.4483 66.4482 88.7572 68.8438C87.5552 70.5349 86.5273 71.9939 86.0383 74.3066C85.8145 75.3759 84.8446 76.0391 83.8581 75.7987C82.8717 75.5583 82.2583 74.5055 82.4821 73.4362C83.137 70.2696 84.5876 68.2304 85.8642 66.4316C87.3977 64.2681 88.7241 62.4029 88.7241 58.6064C88.7241 54.6192 87.3646 52.6463 85.7979 50.3584C84.0737 47.8467 82.1174 44.9951 82.1174 39.607C82.1174 34.2188 84.1566 31.3341 85.9471 28.8721C87.5635 26.6588 88.9562 24.744 88.9562 20.7319C88.9562 16.7198 87.5967 14.9707 86.03 12.7823C84.7037 10.9337 83.195 8.83651 82.5567 5.53731C82.3412 4.46797 82.9795 3.4235 83.9659 3.19139C84.9524 2.96758 85.9222 3.64732 86.1295 4.71665C86.602 7.12888 87.6713 8.62099 88.9147 10.3535C90.6389 12.7574 92.6035 15.4929 92.6035 20.7236Z" fill="#F1BB02"></path><path d="M127.428 327.285C127.428 321.897 125.414 319.128 123.632 316.691C121.999 314.453 120.59 312.522 120.59 308.41C120.59 304.298 121.957 302.334 123.549 300.021C125.256 297.526 127.196 294.708 127.196 289.411C127.196 284.114 125.273 281.56 123.582 279.165C121.974 276.902 120.59 274.945 120.59 270.776C120.59 269.682 119.769 268.795 118.766 268.795C117.763 268.795 116.942 269.682 116.942 270.776C116.942 276.297 118.932 279.098 120.689 281.577C122.223 283.741 123.549 285.606 123.549 289.402C123.549 293.389 122.189 295.362 120.623 297.65C118.898 300.162 116.942 303.014 116.942 308.402C116.942 313.79 118.981 316.675 120.772 319.137C122.388 321.35 123.781 323.265 123.781 327.277C123.781 331.289 122.421 333.038 120.855 335.226C119.073 337.705 117.058 340.523 117.058 346.027C117.058 347.122 117.879 348.009 118.882 348.009C119.885 348.009 120.706 347.122 120.706 346.027C120.706 341.874 122.106 339.918 123.731 337.655C125.464 335.243 127.428 332.499 127.428 327.277L127.428 327.285Z" fill="#F1BB02"></path><path d="M112.093 327.285C112.093 321.897 110.078 319.128 108.296 316.691C106.663 314.453 105.254 312.521 105.254 308.41C105.254 304.298 106.622 302.334 108.213 300.021C109.921 297.526 111.861 294.707 111.861 289.41C111.861 284.113 109.938 281.56 108.247 279.165C107.045 277.474 106.017 276.015 105.528 273.702C105.304 272.633 104.334 271.969 103.347 272.21C102.361 272.45 101.748 273.503 101.971 274.572C102.626 277.739 104.077 279.778 105.354 281.577C106.887 283.74 108.213 285.606 108.213 289.402C108.213 293.389 106.854 295.362 105.287 297.65C103.563 300.162 101.607 303.013 101.607 308.402C101.607 313.79 103.646 316.674 105.436 319.136C107.053 321.35 108.445 323.265 108.445 327.277C108.445 331.289 107.086 333.038 105.519 335.226C104.193 337.075 102.684 339.172 102.046 342.471C101.83 343.541 102.469 344.585 103.455 344.817C104.442 345.049 105.412 344.361 105.619 343.292C106.091 340.88 107.161 339.388 108.404 337.655C110.137 335.243 112.101 332.499 112.101 327.277L112.093 327.285Z" fill="#F1BB02"></path><path d="M142.764 327.285C142.764 321.897 140.749 319.128 138.967 316.691C137.334 314.453 135.925 312.522 135.925 308.41C135.925 304.298 137.293 302.334 138.884 300.021C140.592 297.526 142.532 294.708 142.532 289.411C142.532 284.114 140.608 281.56 138.917 279.165C137.715 277.474 136.688 276.015 136.198 273.702C135.975 272.633 135.005 271.97 134.018 272.21C133.032 272.45 132.418 273.503 132.642 274.572C133.297 277.739 134.748 279.778 136.024 281.577C137.558 283.741 138.884 285.606 138.884 289.402C138.884 293.39 137.525 295.362 135.958 297.65C134.234 300.162 132.278 303.014 132.278 308.402C132.278 313.79 134.317 316.675 136.107 319.137C137.724 321.35 139.116 323.265 139.116 327.277C139.116 331.289 137.757 333.038 136.19 335.226C134.864 337.075 133.355 339.172 132.717 342.471C132.501 343.541 133.14 344.585 134.126 344.817C135.113 345.041 136.082 344.361 136.29 343.292C136.762 340.88 137.831 339.388 139.075 337.655C140.799 335.251 142.764 332.516 142.764 327.285Z" fill="#F1BB02"></path><path d="M127.428 148.508C127.428 143.12 125.414 140.352 123.632 137.915C121.999 135.676 120.59 133.745 120.59 129.633C120.59 125.522 121.957 123.557 123.549 121.244C125.256 118.749 127.196 115.931 127.196 110.634C127.196 105.337 125.273 102.784 123.582 100.388C121.974 98.1252 120.59 96.1688 120.59 91.9992C120.59 90.905 119.769 90.0181 118.766 90.0181C117.763 90.0181 116.942 90.905 116.942 91.9992C116.942 97.52 118.932 100.322 120.689 102.8C122.223 104.964 123.549 106.829 123.549 110.626C123.549 114.613 122.189 116.586 120.623 118.874C118.898 121.385 116.942 124.237 116.942 129.625C116.942 135.013 118.981 137.898 120.772 140.36C122.388 142.573 123.781 144.488 123.781 148.5C123.781 152.512 122.421 154.261 120.855 156.45C119.073 158.928 117.058 161.747 117.058 167.251C117.058 168.345 117.879 169.232 118.882 169.232C119.885 169.232 120.706 168.345 120.706 167.251C120.706 163.098 122.106 161.142 123.731 158.879C125.464 156.466 127.428 153.723 127.428 148.5L127.428 148.508Z" fill="#F1BB02"></path><path d="M112.093 148.508C112.093 143.12 110.078 140.352 108.296 137.914C106.663 135.676 105.254 133.745 105.254 129.633C105.254 125.522 106.622 123.557 108.213 121.244C109.921 118.749 111.861 115.931 111.861 110.634C111.861 105.337 109.938 102.784 108.247 100.388C107.045 98.697 106.017 97.2381 105.528 94.9253C105.304 93.856 104.334 93.1928 103.347 93.4332C102.361 93.6736 101.748 94.7264 101.971 95.7957C102.626 98.9623 104.077 101.001 105.354 102.8C106.887 104.964 108.213 106.829 108.213 110.626C108.213 114.613 106.854 116.586 105.287 118.874C103.563 121.385 101.607 124.237 101.607 129.625C101.607 135.013 103.646 137.898 105.436 140.36C107.053 142.573 108.445 144.488 108.445 148.5C108.445 152.512 107.086 154.261 105.519 156.45C104.193 158.298 102.684 160.395 102.046 163.695C101.83 164.764 102.469 165.808 103.455 166.041C104.442 166.273 105.412 165.585 105.619 164.515C106.091 162.103 107.161 160.611 108.404 158.878C110.137 156.466 112.101 153.722 112.101 148.5L112.093 148.508Z" fill="#F1BB02"></path><path d="M142.764 148.508C142.764 143.12 140.749 140.352 138.967 137.915C137.334 135.676 135.925 133.745 135.925 129.633C135.925 125.522 137.293 123.557 138.884 121.244C140.592 118.749 142.532 115.931 142.532 110.634C142.532 105.337 140.608 102.784 138.917 100.388C137.715 98.6972 136.688 97.2382 136.198 94.9255C135.975 93.8561 135.005 93.193 134.018 93.4334C133.032 93.6738 132.418 94.7265 132.642 95.7959C133.297 98.9624 134.748 101.002 136.024 102.8C137.558 104.964 138.884 106.829 138.884 110.626C138.884 114.613 137.525 116.586 135.958 118.874C134.234 121.385 132.278 124.237 132.278 129.625C132.278 135.013 134.317 137.898 136.107 140.36C137.724 142.573 139.116 144.488 139.116 148.5C139.116 152.512 137.757 154.261 136.19 156.45C134.864 158.298 133.355 160.396 132.717 163.695C132.501 164.764 133.14 165.809 134.126 166.041C135.113 166.264 136.082 165.585 136.29 164.515C136.762 162.103 137.831 160.611 139.075 158.879C140.799 156.475 142.764 153.739 142.764 148.508Z" fill="#F1BB02"></path><path d="M25.8219 327.285C25.8219 321.897 23.8075 319.128 22.0253 316.691C20.3923 314.453 18.9831 312.522 18.9831 308.41C18.9831 304.298 20.3508 302.334 21.9424 300.021C23.65 297.526 25.5898 294.708 25.5898 289.411C25.5898 284.114 23.6666 281.56 21.9756 279.165C20.3674 276.902 18.9831 274.945 18.9831 270.776C18.9831 269.682 18.1624 268.795 17.1594 268.795C16.1564 268.795 15.3357 269.682 15.3357 270.776C15.3357 276.297 17.3252 279.098 19.0825 281.577C20.6161 283.741 21.9424 285.606 21.9424 289.402C21.9424 293.389 20.5829 295.362 19.0162 297.65C17.292 300.162 15.3357 303.014 15.3357 308.402C15.3357 313.79 17.3749 316.675 19.1654 319.137C20.7819 321.35 22.1745 323.265 22.1745 327.277C22.1745 331.289 20.815 333.038 19.2483 335.226C17.4661 337.705 15.4518 340.523 15.4518 346.027C15.4518 347.122 16.2724 348.009 17.2754 348.009C18.2785 348.009 19.0991 347.122 19.0991 346.027C19.0991 341.874 20.5 339.918 22.1248 337.655C23.8573 335.243 25.8219 332.499 25.8219 327.277L25.8219 327.285Z" fill="#F1BB02"></path><path d="M10.4864 327.285C10.4864 321.897 8.47204 319.128 6.68981 316.691C5.05679 314.453 3.64758 312.521 3.64758 308.41C3.64758 304.298 5.01534 302.334 6.60692 300.021C8.31455 297.526 10.2543 294.707 10.2543 289.41C10.2543 284.113 8.33112 281.56 6.64008 279.165C5.43811 277.474 4.41021 276.015 3.92114 273.702C3.69732 272.633 2.72745 271.969 1.74101 272.21C0.754562 272.45 0.141144 273.503 0.36496 274.572C1.01983 277.739 2.47048 279.778 3.74706 281.577C5.2806 283.74 6.60692 285.606 6.60692 289.402C6.60692 293.389 5.24745 295.362 3.68074 297.65C1.95654 300.162 0.00022166 303.013 0.000221725 308.402C0.000221789 313.79 2.03943 316.674 3.82995 319.136C5.4464 321.35 6.83902 323.265 6.83902 327.277C6.83902 331.289 5.47955 333.038 3.91284 335.226C2.58653 337.075 1.07785 339.172 0.439565 342.471C0.224042 343.541 0.862328 344.585 1.84877 344.817C2.83522 345.049 3.80508 344.361 4.01232 343.292C4.48481 340.88 5.55416 339.388 6.79757 337.655C8.53007 335.243 10.4947 332.499 10.4947 327.277L10.4864 327.285Z" fill="#F1BB02"></path><path d="M41.1572 327.285C41.1572 321.897 39.1429 319.128 37.3607 316.691C35.7276 314.453 34.3184 312.522 34.3184 308.41C34.3184 304.298 35.6862 302.334 37.2778 300.021C38.9854 297.526 40.9251 294.708 40.9251 289.411C40.9251 284.114 39.002 281.56 37.3109 279.165C36.109 277.474 35.0811 276.015 34.592 273.702C34.3682 272.633 33.3983 271.97 32.4119 272.21C31.4254 272.45 30.812 273.503 31.0358 274.572C31.6907 277.739 33.1413 279.778 34.4179 281.577C35.9515 283.741 37.2778 285.606 37.2778 289.402C37.2778 293.39 35.9183 295.362 34.3516 297.65C32.6274 300.162 30.6711 303.014 30.6711 308.402C30.6711 313.79 32.7103 316.675 34.5008 319.137C36.1172 321.35 37.5099 323.265 37.5099 327.277C37.5099 331.289 36.1504 333.038 34.5837 335.226C33.2574 337.075 31.7487 339.172 31.1104 342.471C30.8949 343.541 31.5332 344.585 32.5196 344.817C33.5061 345.041 34.4759 344.361 34.6832 343.292C35.1557 340.88 36.225 339.388 37.4684 337.655C39.1926 335.251 41.1572 332.516 41.1572 327.285Z" fill="#F1BB02"></path><path d="M25.8219 148.508C25.8219 143.12 23.8075 140.352 22.0253 137.915C20.3923 135.676 18.9831 133.745 18.9831 129.633C18.9831 125.522 20.3508 123.557 21.9424 121.244C23.65 118.749 25.5898 115.931 25.5898 110.634C25.5898 105.337 23.6666 102.784 21.9756 100.388C20.3674 98.1252 18.9831 96.1688 18.9831 91.9992C18.9831 90.905 18.1624 90.0181 17.1594 90.0181C16.1564 90.0181 15.3357 90.905 15.3357 91.9992C15.3357 97.52 17.3252 100.322 19.0825 102.8C20.6161 104.964 21.9424 106.829 21.9424 110.626C21.9424 114.613 20.5829 116.586 19.0162 118.874C17.292 121.385 15.3357 124.237 15.3357 129.625C15.3357 135.013 17.3749 137.898 19.1654 140.36C20.7819 142.573 22.1745 144.488 22.1745 148.5C22.1745 152.512 20.815 154.261 19.2483 156.45C17.4661 158.928 15.4518 161.747 15.4518 167.251C15.4518 168.345 16.2724 169.232 17.2754 169.232C18.2785 169.232 19.0991 168.345 19.0991 167.251C19.0991 163.098 20.5 161.142 22.1248 158.879C23.8573 156.466 25.8219 153.723 25.8219 148.5L25.8219 148.508Z" fill="#F1BB02"></path><path d="M10.4864 148.508C10.4864 143.12 8.47204 140.352 6.68981 137.914C5.05679 135.676 3.64758 133.745 3.64758 129.633C3.64758 125.522 5.01534 123.557 6.60692 121.244C8.31455 118.749 10.2543 115.931 10.2543 110.634C10.2543 105.337 8.33112 102.784 6.64008 100.388C5.43811 98.697 4.41021 97.2381 3.92114 94.9253C3.69732 93.856 2.72745 93.1928 1.74101 93.4332C0.754562 93.6736 0.141144 94.7264 0.36496 95.7957C1.01983 98.9623 2.47048 101.001 3.74706 102.8C5.2806 104.964 6.60692 106.829 6.60692 110.626C6.60692 114.613 5.24745 116.586 3.68074 118.874C1.95654 121.385 0.00022166 124.237 0.000221725 129.625C0.000221789 135.013 2.03943 137.898 3.82995 140.36C5.4464 142.573 6.83902 144.488 6.83902 148.5C6.83902 152.512 5.47955 154.261 3.91284 156.45C2.58653 158.298 1.07785 160.395 0.439565 163.695C0.224042 164.764 0.862328 165.808 1.84877 166.041C2.83522 166.273 3.80508 165.585 4.01232 164.515C4.48481 162.103 5.55416 160.611 6.79757 158.878C8.53007 156.466 10.4947 153.722 10.4947 148.5L10.4864 148.508Z" fill="#F1BB02"></path><path d="M41.1572 148.508C41.1572 143.12 39.1429 140.352 37.3607 137.915C35.7276 135.676 34.3184 133.745 34.3184 129.633C34.3184 125.522 35.6862 123.557 37.2778 121.244C38.9854 118.749 40.9251 115.931 40.9251 110.634C40.9251 105.337 39.002 102.784 37.3109 100.388C36.109 98.6972 35.0811 97.2382 34.592 94.9255C34.3682 93.8561 33.3983 93.193 32.4119 93.4334C31.4254 93.6738 30.812 94.7265 31.0358 95.7959C31.6907 98.9624 33.1413 101.002 34.4179 102.8C35.9515 104.964 37.2778 106.829 37.2778 110.626C37.2778 114.613 35.9183 116.586 34.3516 118.874C32.6274 121.385 30.6711 124.237 30.6711 129.625C30.6711 135.013 32.7103 137.898 34.5008 140.36C36.1172 142.573 37.5099 144.488 37.5099 148.5C37.5099 152.512 36.1504 154.261 34.5837 156.45C33.2574 158.298 31.7487 160.396 31.1104 163.695C30.8949 164.764 31.5332 165.809 32.5196 166.041C33.5061 166.264 34.4759 165.585 34.6832 164.515C35.1557 162.103 36.225 160.611 37.4684 158.879C39.1926 156.475 41.1572 153.739 41.1572 148.508Z" fill="#F1BB02"></path><path d="M83.6449 347.962C84.5314 347.746 85.0866 346.852 84.8629 345.965C84.6392 345.054 84.3989 343.753 84.3492 342.502C84.432 341.151 85.0783 340.008 86.0229 339.593C86.9757 339.179 88.1606 339.56 89.362 340.662C89.7681 341.043 90.3398 341.184 90.8866 341.052C91.4252 340.919 91.8644 340.521 92.0466 339.991C92.4609 338.814 92.6184 337.704 92.5852 336.66C92.7675 332.948 90.5055 329.965 88.4589 327.272C86.6277 324.853 84.8877 322.549 84.4486 319.716C84.432 319.591 84.4154 319.467 84.4072 319.343C84.374 319.061 84.3492 318.771 84.3492 318.473C84.3492 318.349 84.3409 318.216 84.3409 318.092C84.3409 316.617 85.0203 315.324 86.0312 314.885C86.984 314.471 88.1689 314.852 89.3703 315.954C89.7763 316.335 90.3481 316.476 90.8949 316.343C91.4335 316.211 91.8726 315.813 92.0549 315.283C93.8198 310.286 90.9778 306.533 88.4672 303.227C86.346 300.426 84.3409 297.783 84.3409 294.278C84.3409 292.803 85.0203 291.511 86.0312 291.072C86.984 290.657 88.1689 291.039 89.3703 292.141C89.7763 292.522 90.3563 292.663 90.8949 292.53C91.4335 292.397 91.8726 292 92.0549 291.469C93.8198 286.473 90.9778 282.72 88.4672 279.414C86.346 276.613 84.3409 273.97 84.3409 270.465C84.3409 269.57 83.5951 268.824 82.6837 268.824C81.7723 268.824 81.0266 269.57 81.0266 270.482C81.0266 275.097 83.5786 278.461 85.824 281.427C87.8126 284.045 89.188 286.001 89.2875 288.139C87.7463 287.451 86.1555 287.401 84.7054 288.039C82.4683 289.017 81.0266 291.469 81.0266 294.287C81.0266 298.902 83.5786 302.266 85.824 305.232C87.8126 307.85 89.188 309.806 89.2875 311.944C87.7463 311.256 86.1555 311.206 84.7054 311.844C82.4766 312.822 81.0266 315.275 81.0266 318.092C81.0266 318.166 81.0266 318.249 81.0266 318.324C81.0266 318.498 81.0266 318.655 81.0348 318.829C81.0348 318.887 81.0183 318.937 81.0183 318.995C81.0183 320.553 81.3166 321.969 81.7888 323.279C81.9628 323.933 82.1037 324.364 82.1203 324.414C82.2114 324.704 82.3854 324.936 82.5926 325.126C83.5123 326.899 84.6972 328.474 85.8157 329.949C87.5806 332.277 88.8649 334.083 89.188 335.956C87.6717 335.301 86.114 335.268 84.6889 335.89C82.46 336.867 81.01 339.32 81.01 342.137C81.01 342.303 81.01 342.46 81.0183 342.626C81.0183 342.684 81.01 342.742 81.01 342.808L81.0266 342.808C81.1011 344.275 81.3828 345.725 81.6314 346.744C81.8468 347.63 82.7417 348.177 83.6283 347.962L83.6449 347.962Z" fill="#F1BB02"></path><path d="M68.8631 347.962C69.7496 347.746 70.3048 346.852 70.0811 345.965C69.8574 345.054 69.6171 343.753 69.5674 342.502C69.6502 341.151 70.2965 340.008 71.2411 339.593C72.1939 339.179 73.3788 339.56 74.5802 340.662C74.9863 341.043 75.558 341.184 76.1048 341.052C76.6434 340.919 77.0826 340.521 77.2648 339.991C77.6791 338.814 77.8366 337.704 77.8034 336.66C77.9857 332.948 75.7237 329.965 73.6771 327.272C71.8459 324.853 70.1059 322.549 69.6668 319.716C69.6502 319.591 69.6336 319.467 69.6254 319.343C69.5922 319.061 69.5674 318.771 69.5674 318.473C69.5674 318.349 69.5591 318.216 69.5591 318.092C69.5591 316.617 70.2385 315.324 71.2494 314.885C72.2022 314.471 73.3871 314.852 74.5885 315.954C74.9945 316.335 75.5663 316.476 76.1131 316.343C76.6517 316.211 77.0908 315.813 77.2731 315.283C79.038 310.286 76.196 306.533 73.6854 303.227C71.5642 300.426 69.5591 297.783 69.5591 294.278C69.5591 292.803 70.2385 291.511 71.2494 291.072C72.2022 290.657 73.3871 291.039 74.5885 292.141C74.9945 292.522 75.5745 292.663 76.1131 292.53C76.6517 292.397 77.0908 292 77.2731 291.469C79.038 286.473 76.196 282.72 73.6854 279.414C71.5642 276.613 69.5591 273.97 69.5591 270.465C69.5591 269.554 68.8133 268.808 67.9019 268.808C66.9905 268.808 66.2448 269.554 66.2448 270.465C66.2448 275.08 68.7968 278.444 71.0422 281.411C73.0308 284.029 74.4062 285.984 74.5057 288.122C72.9645 287.434 71.3736 287.385 69.9236 288.023C67.6865 289 66.2448 291.453 66.2448 294.27C66.2448 298.885 68.7968 302.249 71.0422 305.216C73.0308 307.834 74.4062 309.789 74.5057 311.927C72.9645 311.239 71.3737 311.19 69.9236 311.828C67.6948 312.805 66.2448 315.258 66.2448 318.075C66.2448 318.15 66.2448 318.233 66.2448 318.307C66.2448 318.481 66.2448 318.639 66.253 318.813C66.253 318.871 66.2365 318.92 66.2365 318.978C66.2365 320.536 66.5348 321.953 67.007 323.262C67.181 323.917 67.3219 324.347 67.3385 324.397C67.4296 324.687 67.6036 324.919 67.8108 325.11C68.7305 326.883 69.9154 328.457 71.0339 329.932C72.7988 332.26 74.0831 334.067 74.4062 335.939C72.8899 335.285 71.3322 335.252 69.9071 335.873C67.6782 336.851 66.2282 339.303 66.2282 342.12C66.2282 342.286 66.2282 342.444 66.2365 342.609C66.2365 342.667 66.2282 342.725 66.2282 342.792L66.2448 342.792C66.3193 344.258 66.601 345.708 66.8496 346.727C67.065 347.614 67.9599 348.161 68.8465 347.945L68.8631 347.962Z" fill="#F1BB02"></path><path d="M54.0813 347.962C54.9678 347.746 55.523 346.852 55.2993 345.965C55.0756 345.054 54.8353 343.753 54.7856 342.502C54.8684 341.151 55.5147 340.008 56.4593 339.593C57.4121 339.179 58.597 339.56 59.7984 340.662C60.2045 341.043 60.7762 341.184 61.323 341.052C61.8616 340.919 62.3008 340.521 62.483 339.991C62.8973 338.814 63.0548 337.704 63.0216 336.66C63.2039 332.948 60.9419 329.965 58.8953 327.272C57.0641 324.853 55.3241 322.549 54.885 319.716C54.8684 319.591 54.8518 319.467 54.8436 319.343C54.8104 319.061 54.7856 318.771 54.7856 318.473C54.7856 318.349 54.7773 318.216 54.7773 318.092C54.7773 316.617 55.4567 315.324 56.4676 314.885C57.4204 314.471 58.6053 314.852 59.8067 315.954C60.2127 316.335 60.7845 316.476 61.3313 316.343C61.8699 316.211 62.309 315.813 62.4913 315.283C64.2562 310.286 61.4142 306.533 58.9036 303.227C56.7824 300.426 54.7773 297.783 54.7773 294.278C54.7773 292.803 55.4567 291.511 56.4676 291.072C57.4204 290.657 58.6053 291.039 59.8067 292.141C60.2127 292.522 60.7927 292.663 61.3313 292.53C61.8699 292.397 62.309 292 62.4913 291.469C64.2562 286.473 61.4142 282.72 58.9036 279.414C56.7824 276.613 54.7773 273.97 54.7773 270.465C54.7773 269.57 54.0315 268.824 53.1201 268.824C52.2087 268.824 51.463 269.57 51.463 270.482C51.463 275.097 54.015 278.461 56.2604 281.427C58.249 284.045 59.6244 286.001 59.7239 288.139C58.1827 287.451 56.5919 287.401 55.1418 288.039C52.9047 289.017 51.463 291.469 51.463 294.287C51.463 298.902 54.015 302.266 56.2604 305.232C58.249 307.85 59.6244 309.806 59.7239 311.944C58.1827 311.256 56.5919 311.206 55.1418 311.844C52.913 312.822 51.463 315.275 51.463 318.092C51.463 318.166 51.463 318.249 51.463 318.324C51.463 318.498 51.463 318.655 51.4712 318.829C51.4712 318.887 51.4547 318.937 51.4547 318.995C51.4547 320.553 51.753 321.969 52.2252 323.279C52.3993 323.933 52.5401 324.364 52.5567 324.414C52.6478 324.704 52.8218 324.936 53.029 325.126C53.9487 326.899 55.1336 328.474 56.2521 329.949C58.017 332.277 59.3013 334.083 59.6244 335.956C58.1082 335.301 56.5504 335.268 55.1253 335.89C52.8964 336.867 51.4464 339.32 51.4464 342.137C51.4464 342.303 51.4464 342.46 51.4547 342.626C51.4547 342.684 51.4464 342.742 51.4464 342.808L51.463 342.808C51.5375 344.275 51.8192 345.725 52.0678 346.744C52.2832 347.63 53.1781 348.177 54.0647 347.962L54.0813 347.962Z" fill="#F1BB02"></path><path d="M83.6449 169.185C84.5314 168.97 85.0866 168.075 84.8629 167.188C84.6392 166.277 84.3989 164.976 84.3492 163.725C84.432 162.374 85.0783 161.231 86.0229 160.817C86.9757 160.402 88.1606 160.784 89.362 161.886C89.7681 162.267 90.3398 162.408 90.8866 162.275C91.4252 162.142 91.8644 161.745 92.0466 161.214C92.4609 160.038 92.6184 158.928 92.5852 157.884C92.7675 154.171 90.5055 151.189 88.4589 148.496C86.6277 146.076 84.8877 143.773 84.4486 140.939C84.432 140.815 84.4154 140.691 84.4072 140.566C84.374 140.285 84.3492 139.995 84.3492 139.696C84.3492 139.572 84.3409 139.439 84.3409 139.315C84.3409 137.84 85.0203 136.548 86.0312 136.108C86.984 135.694 88.1689 136.075 89.3703 137.177C89.7763 137.558 90.3481 137.699 90.8949 137.567C91.4335 137.434 91.8726 137.036 92.0549 136.506C93.8198 131.51 90.9778 127.756 88.4672 124.45C86.346 121.65 84.3409 119.007 84.3409 115.502C84.3409 114.027 85.0203 112.734 86.0312 112.295C86.984 111.881 88.1689 112.262 89.3703 113.364C89.7763 113.745 90.3563 113.886 90.8949 113.753C91.4335 113.621 91.8726 113.223 92.0549 112.693C93.8198 107.697 90.9778 103.943 88.4672 100.637C86.346 97.8365 84.3409 95.1933 84.3409 91.6884C84.3409 90.7936 83.5951 90.0478 82.6837 90.0478C81.7723 90.0478 81.0266 90.7936 81.0266 91.705C81.0266 96.3202 83.5786 99.6842 85.824 102.651C87.8126 105.269 89.188 107.224 89.2875 109.362C87.7463 108.674 86.1555 108.625 84.7054 109.263C82.4683 110.24 81.0266 112.693 81.0266 115.51C81.0266 120.125 83.5786 123.489 85.824 126.456C87.8126 129.074 89.188 131.029 89.2875 133.167C87.7463 132.479 86.1555 132.43 84.7054 133.068C82.4766 134.045 81.0266 136.498 81.0266 139.315C81.0266 139.39 81.0266 139.473 81.0266 139.547C81.0266 139.721 81.0266 139.879 81.0348 140.053C81.0348 140.111 81.0183 140.16 81.0183 140.218C81.0183 141.776 81.3166 143.193 81.7888 144.502C81.9628 145.157 82.1037 145.587 82.1203 145.637C82.2114 145.927 82.3854 146.159 82.5926 146.35C83.5123 148.123 84.6972 149.697 85.8157 151.172C87.5806 153.5 88.8649 155.307 89.188 157.179C87.6717 156.525 86.114 156.491 84.6889 157.113C82.46 158.091 81.01 160.543 81.01 163.36C81.01 163.526 81.01 163.684 81.0183 163.849C81.0183 163.907 81.01 163.965 81.01 164.032L81.0266 164.032C81.1011 165.498 81.3828 166.948 81.6314 167.967C81.8468 168.854 82.7417 169.401 83.6283 169.185L83.6449 169.185Z" fill="#F1BB02"></path><path d="M68.8631 169.185C69.7496 168.97 70.3048 168.075 70.0811 167.188C69.8574 166.277 69.6171 164.976 69.5674 163.725C69.6502 162.374 70.2965 161.231 71.2411 160.817C72.1939 160.402 73.3788 160.784 74.5802 161.886C74.9863 162.267 75.558 162.408 76.1048 162.275C76.6434 162.142 77.0826 161.745 77.2648 161.214C77.6791 160.038 77.8366 158.927 77.8034 157.883C77.9857 154.171 75.7237 151.189 73.6771 148.496C71.8459 146.076 70.1059 143.773 69.6668 140.939C69.6502 140.815 69.6336 140.69 69.6254 140.566C69.5922 140.284 69.5674 139.994 69.5674 139.696C69.5674 139.572 69.5591 139.439 69.5591 139.315C69.5591 137.84 70.2385 136.548 71.2494 136.108C72.2022 135.694 73.3871 136.075 74.5885 137.177C74.9945 137.558 75.5663 137.699 76.1131 137.567C76.6517 137.434 77.0908 137.036 77.2731 136.506C79.038 131.51 76.196 127.756 73.6854 124.45C71.5642 121.65 69.5591 119.007 69.5591 115.502C69.5591 114.027 70.2385 112.734 71.2494 112.295C72.2022 111.881 73.3871 112.262 74.5885 113.364C74.9945 113.745 75.5745 113.886 76.1131 113.753C76.6517 113.621 77.0908 113.223 77.2731 112.693C79.038 107.697 76.196 103.943 73.6854 100.637C71.5642 97.8365 69.5591 95.1933 69.5591 91.6884C69.5591 90.777 68.8133 90.0313 67.9019 90.0313C66.9905 90.0313 66.2448 90.777 66.2448 91.6884C66.2448 96.3036 68.7968 99.6676 71.0422 102.634C73.0308 105.252 74.4062 107.208 74.5057 109.345C72.9645 108.658 71.3736 108.608 69.9236 109.246C67.6865 110.224 66.2448 112.676 66.2448 115.493C66.2448 120.109 68.7968 123.473 71.0422 126.439C73.0308 129.057 74.4062 131.013 74.5057 133.15C72.9645 132.463 71.3737 132.413 69.9236 133.051C67.6948 134.029 66.2448 136.481 66.2448 139.298C66.2448 139.373 66.2448 139.456 66.2448 139.53C66.2448 139.704 66.2448 139.862 66.253 140.036C66.253 140.094 66.2365 140.144 66.2365 140.202C66.2365 141.759 66.5348 143.176 67.007 144.485C67.181 145.14 67.3219 145.571 67.3385 145.621C67.4296 145.911 67.6036 146.143 67.8108 146.333C68.7305 148.106 69.9154 149.681 71.0339 151.155C72.7988 153.484 74.0831 155.29 74.4062 157.163C72.8899 156.508 71.3322 156.475 69.9071 157.096C67.6782 158.074 66.2282 160.527 66.2282 163.344C66.2282 163.51 66.2282 163.667 66.2365 163.833C66.2365 163.891 66.2282 163.949 66.2282 164.015L66.2448 164.015C66.3193 165.482 66.601 166.932 66.8496 167.951C67.065 168.837 67.9599 169.384 68.8465 169.169L68.8631 169.185Z" fill="#F1BB02"></path><path d="M54.0813 169.185C54.9678 168.97 55.523 168.075 55.2993 167.188C55.0756 166.277 54.8353 164.976 54.7856 163.725C54.8684 162.374 55.5147 161.231 56.4593 160.817C57.4121 160.402 58.597 160.784 59.7984 161.886C60.2045 162.267 60.7762 162.408 61.323 162.275C61.8616 162.142 62.3008 161.745 62.483 161.214C62.8973 160.038 63.0548 158.928 63.0216 157.884C63.2039 154.171 60.9419 151.189 58.8953 148.496C57.0641 146.076 55.3241 143.773 54.885 140.939C54.8684 140.815 54.8518 140.691 54.8436 140.566C54.8104 140.285 54.7856 139.995 54.7856 139.696C54.7856 139.572 54.7773 139.439 54.7773 139.315C54.7773 137.84 55.4567 136.548 56.4676 136.108C57.4204 135.694 58.6053 136.075 59.8067 137.177C60.2127 137.558 60.7845 137.699 61.3313 137.567C61.8699 137.434 62.309 137.036 62.4913 136.506C64.2562 131.51 61.4142 127.756 58.9036 124.45C56.7824 121.65 54.7773 119.007 54.7773 115.502C54.7773 114.027 55.4567 112.734 56.4676 112.295C57.4204 111.881 58.6053 112.262 59.8067 113.364C60.2127 113.745 60.7927 113.886 61.3313 113.753C61.8699 113.621 62.309 113.223 62.4913 112.693C64.2562 107.697 61.4142 103.943 58.9036 100.637C56.7824 97.8365 54.7773 95.1933 54.7773 91.6884C54.7773 90.7936 54.0315 90.0478 53.1201 90.0478C52.2087 90.0478 51.463 90.7936 51.463 91.705C51.463 96.3202 54.015 99.6842 56.2604 102.651C58.249 105.269 59.6244 107.224 59.7239 109.362C58.1827 108.674 56.5919 108.625 55.1418 109.263C52.9047 110.24 51.463 112.693 51.463 115.51C51.463 120.125 54.015 123.489 56.2604 126.456C58.249 129.074 59.6244 131.029 59.7239 133.167C58.1827 132.479 56.5919 132.43 55.1418 133.068C52.913 134.045 51.463 136.498 51.463 139.315C51.463 139.39 51.463 139.473 51.463 139.547C51.463 139.721 51.463 139.879 51.4712 140.053C51.4712 140.111 51.4547 140.16 51.4547 140.218C51.4547 141.776 51.753 143.193 52.2252 144.502C52.3993 145.157 52.5401 145.587 52.5567 145.637C52.6478 145.927 52.8218 146.159 53.029 146.35C53.9487 148.123 55.1336 149.697 56.2521 151.172C58.017 153.5 59.3013 155.307 59.6244 157.179C58.1082 156.525 56.5504 156.491 55.1253 157.113C52.8964 158.091 51.4464 160.543 51.4464 163.36C51.4464 163.526 51.4464 163.684 51.4547 163.849C51.4547 163.907 51.4464 163.965 51.4464 164.032L51.463 164.032C51.5375 165.498 51.8192 166.948 52.0678 167.967C52.2832 168.854 53.1781 169.401 54.0647 169.185L54.0813 169.185Z" fill="#F1BB02"></path><path d="M133.805 178.823C134.692 179.039 135.247 179.934 135.023 180.82C134.799 181.732 134.559 183.033 134.509 184.284C134.592 185.634 135.238 186.778 136.183 187.192C137.136 187.606 138.321 187.225 139.522 186.123C139.928 185.742 140.5 185.601 141.047 185.734C141.585 185.866 142.025 186.264 142.207 186.794C142.621 187.971 142.779 189.081 142.745 190.125C142.928 193.837 140.666 196.82 138.619 199.513C136.788 201.933 135.048 204.236 134.609 207.07C134.592 207.194 134.576 207.318 134.567 207.443C134.534 207.724 134.509 208.014 134.509 208.313C134.509 208.437 134.501 208.569 134.501 208.694C134.501 210.169 135.18 211.461 136.191 211.9C137.144 212.315 138.329 211.933 139.53 210.831C139.936 210.45 140.508 210.309 141.055 210.442C141.594 210.575 142.033 210.972 142.215 211.503C143.98 216.499 141.138 220.252 138.627 223.558C136.506 226.359 134.501 229.002 134.501 232.507C134.501 233.982 135.18 235.274 136.191 235.714C137.144 236.128 138.329 235.747 139.53 234.645C139.936 234.264 140.516 234.123 141.055 234.255C141.594 234.388 142.033 234.786 142.215 235.316C143.98 240.312 141.138 244.066 138.627 247.372C136.506 250.172 134.501 252.815 134.501 256.32C134.501 257.215 133.755 257.961 132.844 257.961C131.932 257.961 131.187 257.215 131.187 256.304C131.187 251.689 133.739 248.325 135.984 245.358C137.973 242.74 139.348 240.785 139.448 238.647C137.906 239.335 136.316 239.384 134.866 238.746C132.628 237.769 131.187 235.316 131.187 232.499C131.187 227.884 133.739 224.52 135.984 221.553C137.973 218.935 139.348 216.979 139.448 214.842C137.906 215.529 136.316 215.579 134.866 214.941C132.637 213.963 131.187 211.511 131.187 208.694C131.187 208.619 131.187 208.536 131.187 208.462C131.187 208.288 131.187 208.13 131.195 207.956C131.195 207.898 131.178 207.849 131.178 207.791C131.178 206.233 131.477 204.816 131.949 203.507C132.123 202.852 132.264 202.421 132.28 202.372C132.372 202.082 132.546 201.85 132.753 201.659C133.672 199.886 134.857 198.312 135.976 196.837C137.741 194.508 139.025 192.702 139.348 190.83C137.832 191.484 136.274 191.517 134.849 190.896C132.62 189.918 131.17 187.466 131.17 184.648C131.17 184.483 131.17 184.325 131.178 184.16C131.178 184.102 131.17 184.044 131.17 183.977L131.187 183.977C131.261 182.511 131.543 181.061 131.792 180.041C132.007 179.155 132.902 178.608 133.788 178.823L133.805 178.823Z" fill="#F1BB02"></path><path d="M119.023 178.824C119.91 179.039 120.465 179.934 120.241 180.82C120.018 181.732 119.777 183.033 119.728 184.284C119.81 185.634 120.457 186.778 121.401 187.192C122.354 187.606 123.539 187.225 124.74 186.123C125.146 185.742 125.718 185.601 126.265 185.734C126.804 185.866 127.243 186.264 127.425 186.794C127.839 187.971 127.997 189.081 127.964 190.125C128.146 193.837 125.884 196.82 123.837 199.513C122.006 201.933 120.266 204.236 119.827 207.07C119.81 207.194 119.794 207.318 119.786 207.443C119.752 207.724 119.728 208.014 119.728 208.313C119.728 208.437 119.719 208.569 119.719 208.694C119.719 210.169 120.399 211.461 121.41 211.9C122.362 212.315 123.547 211.933 124.749 210.831C125.155 210.45 125.726 210.309 126.273 210.442C126.812 210.575 127.251 210.972 127.433 211.503C129.198 216.499 126.356 220.252 123.846 223.558C121.724 226.359 119.719 229.002 119.719 232.507C119.719 233.982 120.399 235.275 121.41 235.714C122.362 236.128 123.547 235.747 124.749 234.645C125.155 234.264 125.735 234.123 126.273 234.255C126.812 234.388 127.251 234.786 127.433 235.316C129.198 240.312 126.356 244.066 123.846 247.372C121.724 250.172 119.719 252.815 119.719 256.32C119.719 257.232 118.974 257.978 118.062 257.978C117.151 257.978 116.405 257.232 116.405 256.32C116.405 251.705 118.957 248.341 121.202 245.375C123.191 242.757 124.566 240.801 124.666 238.663C123.125 239.351 121.534 239.401 120.084 238.763C117.847 237.785 116.405 235.333 116.405 232.515C116.405 227.9 118.957 224.536 121.202 221.57C123.191 218.952 124.566 216.996 124.666 214.858C123.125 215.546 121.534 215.596 120.084 214.958C117.855 213.98 116.405 211.527 116.405 208.71C116.405 208.636 116.405 208.553 116.405 208.478C116.405 208.304 116.405 208.147 116.413 207.973C116.413 207.915 116.397 207.865 116.397 207.807C116.397 206.249 116.695 204.833 117.167 203.523C117.341 202.869 117.482 202.438 117.499 202.388C117.59 202.098 117.764 201.866 117.971 201.676C118.891 199.903 120.076 198.328 121.194 196.853C122.959 194.525 124.243 192.719 124.566 190.846C123.05 191.501 121.492 191.534 120.067 190.912C117.838 189.935 116.388 187.482 116.388 184.665C116.388 184.499 116.388 184.342 116.397 184.176C116.397 184.118 116.388 184.06 116.388 183.994L116.405 183.994C116.479 182.527 116.761 181.077 117.01 180.058C117.225 179.172 118.12 178.625 119.007 178.84L119.023 178.824Z" fill="#F1BB02"></path><path d="M104.241 178.823C105.128 179.039 105.683 179.934 105.459 180.82C105.236 181.732 104.995 183.033 104.946 184.284C105.029 185.634 105.675 186.778 106.619 187.192C107.572 187.606 108.757 187.225 109.959 186.123C110.365 185.742 110.936 185.601 111.483 185.734C112.022 185.866 112.461 186.264 112.643 186.794C113.057 187.971 113.215 189.081 113.182 190.125C113.364 193.837 111.102 196.82 109.055 199.513C107.224 201.933 105.484 204.236 105.045 207.07C105.029 207.194 105.012 207.318 105.004 207.443C104.971 207.724 104.946 208.014 104.946 208.313C104.946 208.437 104.937 208.569 104.937 208.694C104.937 210.169 105.617 211.461 106.628 211.9C107.581 212.315 108.765 211.933 109.967 210.831C110.373 210.45 110.945 210.309 111.491 210.442C112.03 210.575 112.469 210.972 112.651 211.503C114.416 216.499 111.574 220.252 109.064 223.558C106.943 226.359 104.937 229.002 104.937 232.507C104.937 233.982 105.617 235.274 106.628 235.714C107.581 236.128 108.765 235.747 109.967 234.645C110.373 234.264 110.953 234.123 111.491 234.255C112.03 234.388 112.469 234.786 112.651 235.316C114.416 240.312 111.574 244.066 109.064 247.372C106.943 250.172 104.937 252.815 104.937 256.32C104.937 257.215 104.192 257.961 103.28 257.961C102.369 257.961 101.623 257.215 101.623 256.304C101.623 251.689 104.175 248.325 106.421 245.358C108.409 242.74 109.785 240.785 109.884 238.647C108.343 239.335 106.752 239.384 105.302 238.746C103.065 237.769 101.623 235.316 101.623 232.499C101.623 227.884 104.175 224.52 106.421 221.553C108.409 218.935 109.785 216.979 109.884 214.842C108.343 215.529 106.752 215.579 105.302 214.941C103.073 213.963 101.623 211.511 101.623 208.694C101.623 208.619 101.623 208.536 101.623 208.462C101.623 208.288 101.623 208.13 101.631 207.956C101.631 207.898 101.615 207.849 101.615 207.791C101.615 206.233 101.913 204.816 102.385 203.507C102.559 202.852 102.7 202.421 102.717 202.372C102.808 202.082 102.982 201.85 103.189 201.659C104.109 199.886 105.294 198.312 106.412 196.837C108.177 194.508 109.461 192.702 109.785 190.83C108.268 191.484 106.711 191.517 105.285 190.896C103.057 189.918 101.607 187.466 101.607 184.648C101.607 184.483 101.607 184.325 101.615 184.16C101.615 184.102 101.607 184.044 101.607 183.977L101.623 183.977C101.698 182.511 101.979 181.061 102.228 180.041C102.443 179.155 103.338 178.608 104.225 178.823L104.241 178.823Z" fill="#F1BB02"></path><path d="M133.805 0.0468675C134.692 0.262299 135.247 1.15717 135.023 2.04375C134.799 2.95519 134.559 4.25605 134.509 5.5072C134.592 6.85778 135.238 8.00121 136.183 8.4155C137.136 8.8298 138.321 8.44865 139.522 7.34665C139.928 6.9655 140.5 6.82464 141.047 6.95721C141.585 7.08978 142.025 7.4875 142.207 8.01779C142.621 9.19437 142.779 10.3047 142.745 11.3487C142.928 15.0607 140.666 18.0436 138.619 20.7365C136.788 23.1559 135.048 25.4594 134.609 28.2931C134.592 28.4174 134.576 28.5417 134.567 28.666C134.534 28.9477 134.509 29.2377 134.509 29.536C134.509 29.6602 134.501 29.7928 134.501 29.9171C134.501 31.392 135.18 32.6846 136.191 33.1237C137.144 33.538 138.329 33.1568 139.53 32.0548C139.936 31.6737 140.508 31.5328 141.055 31.6654C141.594 31.798 142.033 32.1957 142.215 32.726C143.98 37.7223 141.138 41.4758 138.627 44.7818C136.506 47.5824 134.501 50.2255 134.501 53.7304C134.501 55.2053 135.18 56.4979 136.191 56.937C137.144 57.3513 138.329 56.9702 139.53 55.8682C139.936 55.487 140.516 55.3462 141.055 55.4787C141.594 55.6113 142.033 56.009 142.215 56.5393C143.98 61.5356 141.138 65.2891 138.627 68.5951C136.506 71.3957 134.501 74.0389 134.501 77.5438C134.501 78.4386 133.755 79.1843 132.844 79.1843C131.932 79.1843 131.187 78.4386 131.187 77.5272C131.187 72.912 133.739 69.548 135.984 66.5817C137.973 63.9634 139.348 62.0079 139.448 59.8702C137.906 60.5579 136.316 60.6076 134.866 59.9696C132.628 58.9919 131.187 56.5393 131.187 53.7221C131.187 49.107 133.739 45.7429 135.984 42.7766C137.973 40.1583 139.348 38.2029 139.448 36.0652C137.906 36.7529 136.316 36.8026 134.866 36.1646C132.637 35.1869 131.187 32.7343 131.187 29.9171C131.187 29.8425 131.187 29.7597 131.187 29.6851C131.187 29.5111 131.187 29.3537 131.195 29.1797C131.195 29.1217 131.178 29.072 131.178 29.014C131.178 27.4562 131.477 26.0394 131.949 24.7302C132.123 24.0756 132.264 23.6448 132.28 23.5951C132.372 23.3051 132.546 23.0731 132.753 22.8825C133.672 21.1093 134.857 19.535 135.976 18.0602C137.741 15.7319 139.025 13.9256 139.348 12.053C137.832 12.7075 136.274 12.7407 134.849 12.1192C132.62 11.1415 131.17 8.68893 131.17 5.87177C131.17 5.70605 131.17 5.54863 131.178 5.38291C131.178 5.32491 131.17 5.26691 131.17 5.20062L131.187 5.20062C131.261 3.73405 131.543 2.28403 131.792 1.26489C132.007 0.378304 132.902 -0.168556 133.788 0.0468675L133.805 0.0468675Z" fill="#F1BB02"></path><path d="M119.023 0.0468905C119.91 0.262322 120.465 1.15719 120.241 2.04376C120.018 2.9552 119.777 4.25607 119.728 5.50722C119.81 6.8578 120.457 8.00124 121.401 8.41553C122.354 8.82981 123.539 8.44868 124.74 7.34666C125.146 6.96552 125.718 6.82466 126.265 6.95723C126.804 7.08981 127.243 7.48752 127.425 8.01781C127.839 9.19439 127.997 10.3047 127.964 11.3487C128.146 15.0607 125.884 18.0436 123.837 20.7365C122.006 23.1559 120.266 25.4594 119.827 28.2931C119.81 28.4174 119.794 28.5417 119.786 28.666C119.752 28.9477 119.728 29.2377 119.728 29.536C119.728 29.6603 119.719 29.7928 119.719 29.9171C119.719 31.392 120.399 32.6846 121.41 33.1237C122.362 33.538 123.547 33.1569 124.749 32.0548C125.155 31.6737 125.726 31.5328 126.273 31.6654C126.812 31.798 127.251 32.1957 127.433 32.726C129.198 37.7223 126.356 41.4758 123.846 44.7818C121.724 47.5824 119.719 50.2256 119.719 53.7304C119.719 55.2053 120.399 56.4979 121.41 56.937C122.362 57.3513 123.547 56.9702 124.749 55.8682C125.155 55.487 125.735 55.3462 126.273 55.4787C126.812 55.6113 127.251 56.009 127.433 56.5393C129.198 61.5356 126.356 65.2891 123.846 68.5951C121.724 71.3957 119.719 74.0389 119.719 77.5438C119.719 78.4552 118.974 79.2009 118.062 79.2009C117.151 79.2009 116.405 78.4552 116.405 77.5438C116.405 72.9286 118.957 69.5646 121.202 66.5983C123.191 63.98 124.566 62.0245 124.666 59.8868C123.125 60.5745 121.534 60.6242 120.084 59.9862C117.847 59.0085 116.405 56.5559 116.405 53.7387C116.405 49.1236 118.957 45.7595 121.202 42.7932C123.191 40.1749 124.566 38.2195 124.666 36.0817C123.125 36.7695 121.534 36.8192 120.084 36.1812C117.855 35.2034 116.405 32.7509 116.405 29.9337C116.405 29.8591 116.405 29.7763 116.405 29.7017C116.405 29.5277 116.405 29.3703 116.413 29.1963C116.413 29.1383 116.397 29.0885 116.397 29.0305C116.397 27.4728 116.695 26.056 117.167 24.7468C117.341 24.0922 117.482 23.6614 117.499 23.6116C117.59 23.3216 117.764 23.0896 117.971 22.8991C118.891 21.1259 120.076 19.5516 121.194 18.0767C122.959 15.7484 124.243 13.9421 124.566 12.0696C123.05 12.7241 121.492 12.7573 120.067 12.1358C117.838 11.1581 116.388 8.70553 116.388 5.88837C116.388 5.72265 116.388 5.56522 116.397 5.39951C116.397 5.3415 116.388 5.28351 116.388 5.21722L116.405 5.21722C116.479 3.75064 116.761 2.30063 117.01 1.28148C117.225 0.394898 118.12 -0.151962 119.007 0.0634616L119.023 0.0468905Z" fill="#F1BB02"></path><path d="M104.241 0.0468678C105.128 0.262299 105.683 1.15717 105.459 2.04375C105.236 2.95519 104.995 4.25605 104.946 5.5072C105.029 6.85778 105.675 8.00121 106.619 8.4155C107.572 8.8298 108.757 8.44865 109.959 7.34665C110.365 6.9655 110.936 6.82464 111.483 6.95721C112.022 7.08978 112.461 7.4875 112.643 8.01779C113.057 9.19437 113.215 10.3047 113.182 11.3487C113.364 15.0607 111.102 18.0436 109.055 20.7365C107.224 23.1559 105.484 25.4594 105.045 28.2931C105.029 28.4174 105.012 28.5417 105.004 28.666C104.971 28.9477 104.946 29.2377 104.946 29.536C104.946 29.6602 104.937 29.7928 104.937 29.9171C104.937 31.392 105.617 32.6846 106.628 33.1237C107.581 33.538 108.765 33.1568 109.967 32.0548C110.373 31.6737 110.945 31.5328 111.491 31.6654C112.03 31.798 112.469 32.1957 112.651 32.726C114.416 37.7223 111.574 41.4758 109.064 44.7818C106.943 47.5824 104.937 50.2255 104.937 53.7304C104.937 55.2053 105.617 56.4979 106.628 56.937C107.581 57.3513 108.765 56.9702 109.967 55.8682C110.373 55.487 110.953 55.3462 111.491 55.4787C112.03 55.6113 112.469 56.009 112.651 56.5393C114.416 61.5356 111.574 65.2891 109.064 68.5951C106.943 71.3957 104.937 74.0389 104.937 77.5438C104.937 78.4386 104.192 79.1843 103.28 79.1843C102.369 79.1843 101.623 78.4386 101.623 77.5272C101.623 72.912 104.175 69.548 106.421 66.5817C108.409 63.9634 109.785 62.0079 109.884 59.8702C108.343 60.5579 106.752 60.6076 105.302 59.9696C103.065 58.9919 101.623 56.5393 101.623 53.7221C101.623 49.107 104.175 45.7429 106.421 42.7766C108.409 40.1583 109.785 38.2029 109.884 36.0652C108.343 36.7529 106.752 36.8026 105.302 36.1646C103.073 35.1869 101.623 32.7343 101.623 29.9171C101.623 29.8425 101.623 29.7597 101.623 29.6851C101.623 29.5111 101.623 29.3537 101.631 29.1797C101.631 29.1217 101.615 29.072 101.615 29.014C101.615 27.4562 101.913 26.0394 102.385 24.7302C102.559 24.0756 102.7 23.6448 102.717 23.5951C102.808 23.3051 102.982 23.0731 103.189 22.8825C104.109 21.1093 105.294 19.535 106.412 18.0602C108.177 15.7319 109.461 13.9256 109.785 12.053C108.268 12.7075 106.711 12.7407 105.285 12.1192C103.057 11.1415 101.607 8.68893 101.607 5.87177C101.607 5.70606 101.607 5.54863 101.615 5.38291C101.615 5.32491 101.607 5.26691 101.607 5.20062L101.623 5.20062C101.698 3.73405 101.979 2.28404 102.228 1.26489C102.443 0.378304 103.338 -0.168556 104.225 0.0468678L104.241 0.0468678Z" fill="#F1BB02"></path><path d="M32.1986 178.823C33.0851 179.039 33.6403 179.934 33.4166 180.82C33.1929 181.732 32.9526 183.033 32.9029 184.284C32.9857 185.634 33.632 186.778 34.5766 187.192C35.5295 187.606 36.7143 187.225 37.9158 186.123C38.3218 185.742 38.8935 185.601 39.4403 185.734C39.9789 185.866 40.4181 186.264 40.6003 186.794C41.0146 187.971 41.1721 189.081 41.1389 190.125C41.3212 193.837 39.0592 196.82 37.0126 199.513C35.1815 201.933 33.4414 204.236 33.0023 207.07C32.9857 207.194 32.9691 207.318 32.9609 207.443C32.9277 207.724 32.9029 208.014 32.9029 208.313C32.9029 208.437 32.8946 208.569 32.8946 208.694C32.8946 210.169 33.574 211.461 34.5849 211.9C35.5377 212.315 36.7226 211.933 37.924 210.831C38.33 210.45 38.9018 210.309 39.4486 210.442C39.9872 210.575 40.4263 210.972 40.6086 211.503C42.3735 216.499 39.5315 220.252 37.0209 223.558C34.8997 226.359 32.8946 229.002 32.8946 232.507C32.8946 233.982 33.574 235.274 34.5849 235.714C35.5377 236.128 36.7226 235.747 37.924 234.645C38.33 234.264 38.9101 234.123 39.4486 234.255C39.9872 234.388 40.4263 234.786 40.6086 235.316C42.3735 240.312 39.5315 244.066 37.0209 247.372C34.8997 250.172 32.8946 252.815 32.8946 256.32C32.8946 257.215 32.1489 257.961 31.2374 257.961C30.326 257.961 29.5803 257.215 29.5803 256.304C29.5803 251.689 32.1323 248.325 34.3777 245.358C36.3663 242.74 37.7418 240.785 37.8412 238.647C36.3 239.335 34.7092 239.384 33.2592 238.746C31.022 237.769 29.5803 235.316 29.5803 232.499C29.5803 227.884 32.1323 224.52 34.3777 221.553C36.3663 218.935 37.7418 216.979 37.8412 214.842C36.3 215.529 34.7092 215.579 33.2591 214.941C31.0303 213.963 29.5803 211.511 29.5803 208.694C29.5803 208.619 29.5803 208.536 29.5803 208.462C29.5803 208.288 29.5803 208.13 29.5885 207.956C29.5885 207.898 29.572 207.849 29.572 207.791C29.572 206.233 29.8703 204.816 30.3426 203.507C30.5166 202.852 30.6574 202.421 30.674 202.372C30.7651 202.082 30.9391 201.85 31.1463 201.659C32.066 199.886 33.2509 198.312 34.3694 196.837C36.1343 194.508 37.4186 192.702 37.7418 190.83C36.2255 191.484 34.6677 191.517 33.2426 190.896C31.0137 189.918 29.5637 187.466 29.5637 184.648C29.5637 184.483 29.5637 184.325 29.572 184.16C29.572 184.102 29.5637 184.044 29.5637 183.977L29.5803 183.977C29.6548 182.511 29.9366 181.061 30.1851 180.041C30.4006 179.155 31.2954 178.608 32.182 178.823L32.1986 178.823Z" fill="#F1BB02"></path><path d="M17.4168 178.824C18.3033 179.039 18.8585 179.934 18.6348 180.82C18.4111 181.732 18.1708 183.033 18.1211 184.284C18.2039 185.634 18.8502 186.778 19.7948 187.192C20.7477 187.606 21.9325 187.225 23.134 186.123C23.54 185.742 24.1117 185.601 24.6585 185.734C25.1971 185.866 25.6363 186.264 25.8185 186.794C26.2328 187.971 26.3903 189.081 26.3571 190.125C26.5394 193.837 24.2774 196.82 22.2308 199.513C20.3996 201.933 18.6596 204.236 18.2205 207.07C18.2039 207.194 18.1873 207.318 18.1791 207.443C18.1459 207.724 18.1211 208.014 18.1211 208.313C18.1211 208.437 18.1128 208.569 18.1128 208.694C18.1128 210.169 18.7922 211.461 19.8031 211.9C20.7559 212.315 21.9408 211.933 23.1422 210.831C23.5482 210.45 24.12 210.309 24.6668 210.442C25.2054 210.575 25.6445 210.972 25.8268 211.503C27.5917 216.499 24.7497 220.252 22.2391 223.558C20.1179 226.359 18.1128 229.002 18.1128 232.507C18.1128 233.982 18.7922 235.275 19.8031 235.714C20.7559 236.128 21.9408 235.747 23.1422 234.645C23.5482 234.264 24.1282 234.123 24.6668 234.255C25.2054 234.388 25.6445 234.786 25.8268 235.316C27.5917 240.312 24.7497 244.066 22.2391 247.372C20.1179 250.172 18.1128 252.815 18.1128 256.32C18.1128 257.232 17.3671 257.978 16.4556 257.978C15.5442 257.978 14.7985 257.232 14.7985 256.32C14.7985 251.705 17.3505 248.341 19.5959 245.375C21.5845 242.757 22.96 240.801 23.0594 238.663C21.5182 239.351 19.9274 239.401 18.4773 238.763C16.2402 237.785 14.7985 235.333 14.7985 232.515C14.7985 227.9 17.3505 224.536 19.5959 221.57C21.5845 218.952 22.96 216.996 23.0594 214.858C21.5182 215.546 19.9274 215.596 18.4773 214.958C16.2485 213.98 14.7985 211.527 14.7985 208.71C14.7985 208.636 14.7985 208.553 14.7985 208.478C14.7985 208.304 14.7985 208.147 14.8068 207.973C14.8068 207.915 14.7902 207.865 14.7902 207.807C14.7902 206.249 15.0885 204.833 15.5608 203.523C15.7348 202.869 15.8756 202.438 15.8922 202.388C15.9833 202.098 16.1573 201.866 16.3645 201.676C17.2842 199.903 18.4691 198.328 19.5876 196.853C21.3525 194.525 22.6368 192.719 22.96 190.846C21.4437 191.501 19.8859 191.534 18.4608 190.912C16.2319 189.935 14.7819 187.482 14.7819 184.665C14.7819 184.499 14.7819 184.342 14.7902 184.176C14.7902 184.118 14.7819 184.06 14.7819 183.994L14.7985 183.994C14.873 182.527 15.1548 181.077 15.4033 180.058C15.6188 179.172 16.5136 178.625 17.4002 178.84L17.4168 178.824Z" fill="#F1BB02"></path><path d="M2.63497 178.823C3.52155 179.039 4.0767 179.934 3.85298 180.82C3.62926 181.732 3.38898 183.033 3.33926 184.284C3.42212 185.634 4.06841 186.778 5.01299 187.192C5.96585 187.606 7.15072 187.225 8.35216 186.123C8.75816 185.742 9.32988 185.601 9.87674 185.734C10.4153 185.866 10.8545 186.264 11.0368 186.794C11.451 187.971 11.6085 189.081 11.5753 190.125C11.7576 193.837 9.4956 196.82 7.44901 199.513C5.61785 201.933 3.87784 204.236 3.43869 207.07C3.42212 207.194 3.40555 207.318 3.39726 207.443C3.36412 207.724 3.33926 208.014 3.33926 208.313C3.33926 208.437 3.33097 208.569 3.33097 208.694C3.33097 210.169 4.01041 211.461 5.02127 211.9C5.97414 212.315 7.159 211.933 8.36044 210.831C8.76644 210.45 9.33816 210.309 9.88503 210.442C10.4236 210.575 10.8627 210.972 11.045 211.503C12.8099 216.499 9.96789 220.252 7.45729 223.558C5.33614 226.359 3.33097 229.002 3.33097 232.507C3.33097 233.982 4.01041 235.274 5.02127 235.714C5.97414 236.128 7.159 235.747 8.36044 234.645C8.76644 234.264 9.34645 234.123 9.88503 234.255C10.4236 234.388 10.8627 234.786 11.045 235.316C12.8099 240.312 9.96789 244.066 7.45729 247.372C5.33614 250.172 3.33097 252.815 3.33097 256.32C3.33097 257.215 2.58525 257.961 1.67382 257.961C0.762386 257.961 0.0166664 257.215 0.0166664 256.304C0.0166663 251.689 2.56868 248.325 4.81413 245.358C6.80272 242.74 8.17816 240.785 8.27759 238.647C6.73643 239.335 5.14556 239.384 3.69555 238.746C1.45839 237.769 0.0166661 235.316 0.0166661 232.499C0.0166661 227.884 2.56868 224.52 4.81413 221.553C6.80272 218.935 8.17816 216.979 8.27759 214.842C6.73643 215.529 5.14556 215.579 3.69555 214.941C1.46668 213.963 0.0166659 211.511 0.0166658 208.694C0.0166658 208.619 0.0166658 208.536 0.0166658 208.462C0.0166658 208.288 0.0166658 208.13 0.0249513 207.956C0.0249513 207.898 0.00838029 207.849 0.00838029 207.791C0.00838027 206.233 0.306667 204.816 0.778957 203.507C0.95296 202.852 1.09381 202.421 1.11039 202.372C1.20153 202.082 1.37553 201.85 1.58268 201.659C2.5024 199.886 3.68727 198.312 4.80585 196.837C6.57072 194.508 7.85501 192.702 8.17816 190.83C6.66186 191.484 5.10413 191.517 3.67898 190.896C1.45011 189.918 9.45266e-05 187.466 9.4493e-05 184.648C9.4491e-05 184.483 9.44891e-05 184.325 0.00838001 184.16C0.00838001 184.102 9.44858e-05 184.044 9.4485e-05 183.977L0.0166655 183.977C0.0912352 182.511 0.372954 181.061 0.621528 180.041C0.836959 179.155 1.73182 178.608 2.6184 178.823L2.63497 178.823Z" fill="#F1BB02"></path><path d="M32.1986 0.0468675C33.0851 0.262299 33.6403 1.15717 33.4166 2.04375C33.1929 2.95519 32.9526 4.25605 32.9029 5.5072C32.9857 6.85778 33.632 8.00121 34.5766 8.4155C35.5295 8.8298 36.7143 8.44865 37.9158 7.34665C38.3218 6.9655 38.8935 6.82464 39.4403 6.95721C39.9789 7.08978 40.4181 7.4875 40.6003 8.01779C41.0146 9.19437 41.1721 10.3047 41.1389 11.3487C41.3212 15.0607 39.0592 18.0436 37.0126 20.7365C35.1815 23.1559 33.4414 25.4594 33.0023 28.2931C32.9857 28.4174 32.9691 28.5417 32.9609 28.666C32.9277 28.9477 32.9029 29.2377 32.9029 29.536C32.9029 29.6602 32.8946 29.7928 32.8946 29.9171C32.8946 31.392 33.574 32.6846 34.5849 33.1237C35.5377 33.538 36.7226 33.1568 37.924 32.0548C38.33 31.6737 38.9018 31.5328 39.4486 31.6654C39.9872 31.798 40.4263 32.1957 40.6086 32.726C42.3735 37.7223 39.5315 41.4758 37.0209 44.7818C34.8997 47.5824 32.8946 50.2255 32.8946 53.7304C32.8946 55.2053 33.574 56.4979 34.5849 56.937C35.5377 57.3513 36.7226 56.9702 37.924 55.8682C38.33 55.487 38.9101 55.3462 39.4486 55.4787C39.9872 55.6113 40.4263 56.009 40.6086 56.5393C42.3735 61.5356 39.5315 65.2891 37.0209 68.5951C34.8997 71.3957 32.8946 74.0389 32.8946 77.5438C32.8946 78.4386 32.1489 79.1843 31.2374 79.1843C30.326 79.1843 29.5803 78.4386 29.5803 77.5272C29.5803 72.912 32.1323 69.548 34.3777 66.5817C36.3663 63.9634 37.7418 62.0079 37.8412 59.8702C36.3 60.5579 34.7092 60.6076 33.2592 59.9696C31.022 58.9919 29.5803 56.5393 29.5803 53.7221C29.5803 49.107 32.1323 45.7429 34.3777 42.7766C36.3663 40.1583 37.7418 38.2029 37.8412 36.0652C36.3 36.7529 34.7092 36.8026 33.2591 36.1646C31.0303 35.1869 29.5803 32.7343 29.5803 29.9171C29.5803 29.8425 29.5803 29.7597 29.5803 29.6851C29.5803 29.5111 29.5803 29.3537 29.5885 29.1797C29.5885 29.1217 29.572 29.072 29.572 29.014C29.572 27.4562 29.8703 26.0394 30.3426 24.7302C30.5166 24.0756 30.6574 23.6448 30.674 23.5951C30.7651 23.3051 30.9391 23.0731 31.1463 22.8825C32.066 21.1093 33.2509 19.535 34.3694 18.0602C36.1343 15.7319 37.4186 13.9256 37.7418 12.053C36.2255 12.7075 34.6677 12.7407 33.2426 12.1192C31.0137 11.1415 29.5637 8.68893 29.5637 5.87177C29.5637 5.70605 29.5637 5.54863 29.572 5.38291C29.572 5.32491 29.5637 5.26691 29.5637 5.20062L29.5803 5.20062C29.6548 3.73405 29.9366 2.28403 30.1851 1.26489C30.4006 0.378304 31.2954 -0.168556 32.182 0.0468675L32.1986 0.0468675Z" fill="#F1BB02"></path><path d="M17.4168 0.0468905C18.3033 0.262322 18.8585 1.15719 18.6348 2.04376C18.4111 2.9552 18.1708 4.25607 18.1211 5.50722C18.2039 6.8578 18.8502 8.00124 19.7948 8.41553C20.7477 8.82981 21.9325 8.44868 23.134 7.34666C23.54 6.96552 24.1117 6.82466 24.6585 6.95723C25.1971 7.08981 25.6363 7.48752 25.8185 8.01781C26.2328 9.19439 26.3903 10.3047 26.3571 11.3487C26.5394 15.0607 24.2774 18.0436 22.2308 20.7365C20.3996 23.1559 18.6596 25.4594 18.2205 28.2931C18.2039 28.4174 18.1873 28.5417 18.1791 28.666C18.1459 28.9477 18.1211 29.2377 18.1211 29.536C18.1211 29.6603 18.1128 29.7928 18.1128 29.9171C18.1128 31.392 18.7922 32.6846 19.8031 33.1237C20.7559 33.538 21.9408 33.1569 23.1422 32.0548C23.5482 31.6737 24.12 31.5328 24.6668 31.6654C25.2054 31.798 25.6445 32.1957 25.8268 32.726C27.5917 37.7223 24.7497 41.4758 22.2391 44.7818C20.1179 47.5824 18.1128 50.2256 18.1128 53.7304C18.1128 55.2053 18.7922 56.4979 19.8031 56.937C20.7559 57.3513 21.9408 56.9702 23.1422 55.8682C23.5482 55.487 24.1282 55.3462 24.6668 55.4787C25.2054 55.6113 25.6445 56.009 25.8268 56.5393C27.5917 61.5356 24.7497 65.2891 22.2391 68.5951C20.1179 71.3957 18.1128 74.0389 18.1128 77.5438C18.1128 78.4552 17.3671 79.2009 16.4556 79.2009C15.5442 79.2009 14.7985 78.4552 14.7985 77.5438C14.7985 72.9286 17.3505 69.5646 19.5959 66.5983C21.5845 63.98 22.96 62.0245 23.0594 59.8868C21.5182 60.5745 19.9274 60.6242 18.4773 59.9862C16.2402 59.0085 14.7985 56.5559 14.7985 53.7387C14.7985 49.1236 17.3505 45.7595 19.5959 42.7932C21.5845 40.1749 22.96 38.2195 23.0594 36.0817C21.5182 36.7695 19.9274 36.8192 18.4773 36.1812C16.2485 35.2034 14.7985 32.7509 14.7985 29.9337C14.7985 29.8591 14.7985 29.7763 14.7985 29.7017C14.7985 29.5277 14.7985 29.3703 14.8068 29.1963C14.8068 29.1383 14.7902 29.0885 14.7902 29.0305C14.7902 27.4728 15.0885 26.056 15.5608 24.7468C15.7348 24.0922 15.8756 23.6614 15.8922 23.6116C15.9833 23.3216 16.1573 23.0896 16.3645 22.8991C17.2842 21.1259 18.4691 19.5516 19.5876 18.0767C21.3525 15.7484 22.6368 13.9421 22.96 12.0696C21.4437 12.7241 19.8859 12.7573 18.4608 12.1358C16.2319 11.1581 14.7819 8.70553 14.7819 5.88837C14.7819 5.72265 14.7819 5.56522 14.7902 5.39951C14.7902 5.3415 14.7819 5.28351 14.7819 5.21722L14.7985 5.21722C14.873 3.75064 15.1548 2.30063 15.4033 1.28148C15.6188 0.394898 16.5136 -0.151962 17.4002 0.0634616L17.4168 0.0468905Z" fill="#F1BB02"></path><path d="M2.63497 0.0468678C3.52155 0.262299 4.0767 1.15717 3.85298 2.04375C3.62926 2.95519 3.38898 4.25605 3.33926 5.5072C3.42212 6.85778 4.06841 8.00121 5.01299 8.4155C5.96585 8.8298 7.15072 8.44865 8.35216 7.34665C8.75816 6.9655 9.32988 6.82464 9.87674 6.95721C10.4153 7.08978 10.8545 7.4875 11.0368 8.01779C11.451 9.19437 11.6085 10.3047 11.5753 11.3487C11.7576 15.0607 9.4956 18.0436 7.44901 20.7365C5.61785 23.1559 3.87784 25.4594 3.43869 28.2931C3.42212 28.4174 3.40555 28.5417 3.39726 28.666C3.36412 28.9477 3.33926 29.2377 3.33926 29.536C3.33926 29.6602 3.33097 29.7928 3.33097 29.9171C3.33097 31.392 4.01041 32.6846 5.02127 33.1237C5.97414 33.538 7.159 33.1568 8.36044 32.0548C8.76644 31.6737 9.33816 31.5328 9.88503 31.6654C10.4236 31.798 10.8627 32.1957 11.045 32.726C12.8099 37.7223 9.96789 41.4758 7.45729 44.7818C5.33614 47.5824 3.33097 50.2255 3.33097 53.7304C3.33097 55.2053 4.01041 56.4979 5.02127 56.937C5.97414 57.3513 7.159 56.9702 8.36044 55.8682C8.76644 55.487 9.34645 55.3462 9.88503 55.4787C10.4236 55.6113 10.8627 56.009 11.045 56.5393C12.8099 61.5356 9.96789 65.2891 7.45729 68.5951C5.33614 71.3957 3.33097 74.0389 3.33097 77.5438C3.33097 78.4386 2.58525 79.1843 1.67382 79.1843C0.762386 79.1843 0.0166664 78.4386 0.0166664 77.5272C0.0166663 72.912 2.56868 69.548 4.81413 66.5817C6.80272 63.9634 8.17816 62.0079 8.27759 59.8702C6.73643 60.5579 5.14556 60.6076 3.69555 59.9696C1.45839 58.9919 0.0166661 56.5393 0.0166661 53.7221C0.0166661 49.107 2.56868 45.7429 4.81413 42.7766C6.80272 40.1583 8.17816 38.2029 8.27759 36.0652C6.73643 36.7529 5.14556 36.8026 3.69555 36.1646C1.46668 35.1869 0.0166659 32.7343 0.0166658 29.9171C0.0166658 29.8425 0.0166658 29.7597 0.0166658 29.6851C0.0166658 29.5111 0.0166658 29.3537 0.0249513 29.1797C0.0249513 29.1217 0.00838029 29.072 0.00838029 29.014C0.00838027 27.4562 0.306667 26.0394 0.778957 24.7302C0.95296 24.0756 1.09381 23.6448 1.11039 23.5951C1.20153 23.3051 1.37553 23.0731 1.58268 22.8825C2.5024 21.1093 3.68727 19.535 4.80585 18.0602C6.57072 15.7319 7.85501 13.9256 8.17816 12.053C6.66186 12.7075 5.10413 12.7407 3.67898 12.1192C1.45011 11.1415 9.45266e-05 8.68893 9.4493e-05 5.87177C9.4491e-05 5.70606 9.44891e-05 5.54863 0.00838001 5.38291C0.00838001 5.32491 9.44858e-05 5.26691 9.4485e-05 5.20062L0.0166655 5.20062C0.0912352 3.73405 0.372954 2.28404 0.621528 1.26489C0.836959 0.378304 1.73182 -0.168556 2.6184 0.0468678L2.63497 0.0468678Z" fill="#F1BB02"></path></svg> 